# This file uses centimeters as units for non-parametric coordinates.

mtllib MDL_Boot2.mtl
g default
v -2.793329 8.907333 0.656014
v -1.229803 4.782788 0.656014
v -4.481740 3.081724 0.656014
v -3.373485 0.288664 0.656014
v -0.360208 1.544164 0.656014
v 3.018062 2.040533 0.656014
v 2.884502 5.638089 0.656014
v 2.534272 10.073876 0.656014
v -4.468479 1.000069 0.656014
v -0.747465 2.761362 0.656014
v 3.830342 2.966029 0.656014
v -4.794218 1.772163 0.656014
v -1.036891 3.512079 0.656014
v 3.781395 3.853114 0.656014
v -2.793329 8.907333 1.399846
v -1.229803 4.782788 1.399846
v 2.884502 5.638089 1.399846
v 2.534272 10.073876 1.399846
v -4.481740 3.081724 1.399846
v -4.794218 1.772163 1.399846
v -1.036891 3.512079 1.399846
v 3.781395 3.853114 1.399846
v -4.468479 1.000069 1.399846
v -0.747465 2.761362 1.399846
v -3.373485 0.288664 1.399846
v -0.360208 1.544164 1.399846
v 3.018062 2.040533 1.399846
v 3.830342 2.966029 1.399846
v 1.454583 5.469652 1.399846
v 0.296785 9.803766 1.399846
v 0.296785 9.803766 0.656014
v 1.454583 5.469652 0.656014
v 1.648133 4.103553 0.656014
v 1.730915 3.101042 0.656014
v 1.869755 2.051563 0.656014
v 1.869755 2.051563 1.399846
v 1.730915 3.101042 1.399846
v 1.648133 4.103553 1.399846
v -2.142125 6.845061 1.399846
v 1.009587 7.636709 1.399846
v 2.984164 7.855983 1.399846
v 2.984164 7.855983 0.656014
v 1.009587 7.636709 0.656014
v -2.142125 6.845061 0.656014
vt 0.276952 0.778794
vt 0.373478 0.403048
vt 0.203725 0.315571
vt 0.359845 0.060132
vt 0.614038 0.154781
vt 0.894369 0.238596
vt 0.785718 0.584022
vt 0.743336 0.884368
vt 0.239381 0.097267
vt 0.529490 0.281433
vt 0.938001 0.275503
vt 0.166887 0.186427
vt 0.491885 0.328368
vt 0.923562 0.350124
vt 0.274411 0.766384
vt 0.446259 0.453717
vt 0.766112 0.568727
vt 0.687919 0.920036
vt 0.205036 0.280717
vt 0.194813 0.172300
vt 0.476074 0.354125
vt 0.858122 0.435904
vt 0.507741 0.297270
vt 0.229629 0.114144
vt 0.325371 0.069544
vt 0.552516 0.204161
vt 0.817475 0.282103
vt 0.872070 0.365410
vt 0.323641 0.749362
vt 0.438223 0.407772
vt 0.749334 0.541717
vt 0.704667 0.848530
vt 0.246791 0.281708
vt 0.226155 0.189279
vt 0.866823 0.371489
vt 0.263078 0.141781
vt 0.353127 0.106771
vt 0.582709 0.202156
vt 0.840814 0.264087
vt 0.882667 0.313142
vt 0.648408 0.503474
vt 0.548277 0.826897
vt 0.540928 0.878528
vt 0.511769 0.873111
vt 0.653491 0.539073
vt 0.684435 0.431848
vt 0.702398 0.352491
vt 0.764002 0.197574
vt 0.725381 0.270006
vt 0.746540 0.252323
vt 0.714804 0.329416
vt 0.691174 0.404807
vt 0.395432 0.604302
vt 0.596902 0.661884
vt 0.720847 0.705933
vt 0.761342 0.729163
vt 0.749023 0.747488
vt 0.593355 0.707605
vt 0.353711 0.603025
vt 0.349879 0.608574
vn 0.000000 0.000000 1.000000
vn 0.000000 0.000000 1.000000
vn -0.000000 0.000000 1.000000
vn -0.000000 0.000000 1.000000
vn 0.000000 0.000000 1.000000
vn 0.000000 0.000000 1.000000
vn 0.000000 0.000000 1.000000
vn 0.000000 0.000000 1.000000
vn 0.000000 0.000000 1.000000
vn 0.000000 0.000000 1.000000
vn 0.000000 0.000000 1.000000
vn 0.000000 0.000000 1.000000
vn -0.000000 0.000000 1.000000
vn -0.000000 0.000000 1.000000
vn -0.000000 0.000000 1.000000
vn -0.000000 0.000000 1.000000
vn -0.000000 0.000000 1.000000
vn -0.000000 0.000000 1.000000
vn -0.000000 0.000000 1.000000
vn -0.000000 0.000000 1.000000
vn 0.000000 0.000000 1.000000
vn 0.000000 0.000000 1.000000
vn -0.000000 0.000000 1.000000
vn -0.000000 0.000000 1.000000
vn -0.000000 0.000000 1.000000
vn -0.000000 0.000000 1.000000
vn 0.000000 0.000000 1.000000
vn 0.000000 0.000000 1.000000
vn -0.000000 0.000000 -1.000000
vn -0.000000 0.000000 -1.000000
vn -0.000000 0.000000 -1.000000
vn -0.000000 0.000000 -1.000000
vn 0.000000 0.000000 -1.000000
vn 0.000000 0.000000 -1.000000
vn 0.000000 0.000000 -1.000000
vn 0.000000 0.000000 -1.000000
vn 0.000000 0.000000 -1.000000
vn 0.000000 0.000000 -1.000000
vn -0.000000 0.000000 -1.000000
vn -0.000000 0.000000 -1.000000
vn 0.000000 0.000000 -1.000000
vn 0.000000 0.000000 -1.000000
vn 0.000000 0.000000 -1.000000
vn 0.000000 0.000000 -1.000000
vn 0.000000 0.000000 -1.000000
vn -0.000000 0.000000 -1.000000
vn -0.000000 0.000000 -1.000000
vn 0.000000 0.000000 -1.000000
vn 0.000000 0.000000 -1.000000
vn 0.000000 0.000000 -1.000000
vn 0.000000 0.000000 -1.000000
vn 0.000000 0.000000 -1.000000
vn -0.000000 0.000000 -1.000000
vn 0.000000 0.000000 -1.000000
vn -0.000000 0.000000 -1.000000
vn -0.000000 0.000000 -1.000000
vn -0.953588 -0.301115 0.000000
vn -0.935069 -0.354465 0.000000
vn -0.935069 -0.354465 0.000000
vn -0.953588 -0.301115 0.000000
vn 0.996898 0.078711 0.000000
vn 0.980041 0.198798 0.000000
vn 0.980041 0.198798 0.000000
vn 0.996898 0.078711 0.000000
vn -0.213895 0.976857 0.000000
vn -0.278610 0.960404 0.000000
vn -0.278610 0.960404 0.000000
vn -0.213895 0.976857 0.000000
vn -0.463509 0.886092 0.000000
vn -0.463509 0.886092 0.000000
vn -0.463509 0.886092 0.000000
vn -0.463509 0.886092 0.000000
vn -0.972693 0.232097 0.000000
vn -0.972693 0.232097 0.000000
vn -0.972693 0.232097 0.000000
vn -0.972693 0.232097 0.000000
vn 0.893543 0.448977 0.000000
vn 0.893543 0.448977 0.000000
vn 0.893543 0.448977 0.000000
vn 0.893543 0.448977 0.000000
vn -0.544804 -0.838563 0.000000
vn -0.544804 -0.838563 0.000000
vn -0.544804 -0.838563 0.000000
vn -0.544804 -0.838563 0.000000
vn 0.384607 -0.923081 0.000000
vn 0.318692 -0.947858 0.000000
vn 0.318692 -0.947858 0.000000
vn 0.384607 -0.923081 0.000000
vn 0.318692 -0.947858 0.000000
vn 0.145369 -0.989378 0.000000
vn 0.145369 -0.989378 0.000000
vn 0.318692 -0.947858 0.000000
vn 0.751581 -0.659641 0.000000
vn 0.751581 -0.659641 0.000000
vn 0.751581 -0.659641 0.000000
vn 0.751581 -0.659641 0.000000
vn -0.921359 -0.388712 0.000000
vn -0.921359 -0.388712 0.000000
vn -0.921359 -0.388712 0.000000
vn -0.921359 -0.388712 0.000000
vn 0.998481 0.055094 0.000000
vn 0.998481 0.055094 0.000000
vn 0.998481 0.055094 0.000000
vn 0.998481 0.055094 0.000000
vn -0.000000 0.000000 1.000000
vn -0.000000 0.000000 1.000000
vn -0.000000 0.000000 1.000000
vn -0.000000 0.000000 1.000000
vn -0.119850 0.992792 0.000000
vn -0.213895 0.976857 0.000000
vn -0.213895 0.976857 0.000000
vn -0.119850 0.992792 0.000000
vn -0.000000 0.000000 -1.000000
vn -0.000000 0.000000 -1.000000
vn 0.000000 0.000000 -1.000000
vn 0.000000 0.000000 -1.000000
vn -0.000000 0.000000 -1.000000
vn -0.000000 0.000000 -1.000000
vn -0.000000 0.000000 -1.000000
vn -0.000000 0.000000 -1.000000
vn -0.000000 0.000000 -1.000000
vn -0.000000 0.000000 -1.000000
vn -0.000000 0.000000 -1.000000
vn 0.000000 0.000000 -1.000000
vn 0.000000 0.000000 -1.000000
vn -0.000000 0.000000 -1.000000
vn 0.000000 0.000000 -1.000000
vn 0.000000 0.000000 -1.000000
vn 0.145369 -0.989378 0.000000
vn 0.145369 -0.989378 0.000000
vn -0.009605 -0.999954 0.000000
vn -0.009605 -0.999954 0.000000
vn -0.000000 0.000000 1.000000
vn -0.000000 0.000000 1.000000
vn -0.000000 0.000000 1.000000
vn -0.000000 0.000000 1.000000
vn 0.000000 0.000000 1.000000
vn -0.000000 0.000000 1.000000
vn -0.000000 0.000000 1.000000
vn -0.000000 0.000000 1.000000
vn 0.000000 0.000000 1.000000
vn 0.000000 0.000000 1.000000
vn -0.000000 0.000000 1.000000
vn 0.000000 0.000000 1.000000
vn 0.000000 0.000000 1.000000
vn 0.000000 0.000000 1.000000
vn -0.000000 0.000000 1.000000
vn -0.000000 0.000000 1.000000
vn -0.000000 0.000000 1.000000
vn -0.000000 0.000000 1.000000
vn -0.000000 0.000000 1.000000
vn -0.000000 0.000000 1.000000
vn 0.998992 -0.044890 0.000000
vn 0.996898 0.078711 0.000000
vn 0.996898 0.078711 0.000000
vn 0.998992 -0.044890 0.000000
vn -0.000000 0.000000 -1.000000
vn -0.000000 0.000000 -1.000000
vn 0.000000 0.000000 -1.000000
vn 0.000000 0.000000 -1.000000
vn -0.000000 0.000000 -1.000000
vn -0.000000 0.000000 -1.000000
vn -0.000000 0.000000 -1.000000
vn -0.000000 0.000000 -1.000000
vn -0.935069 -0.354465 0.000000
vn -0.935069 -0.354465 0.000000
vn -0.914509 -0.404566 0.000000
vn -0.914509 -0.404566 0.000000
s off
g MDL_Boot2
usemtl MDL_Boot2SG
f 15/29/1 39/53/2 40/54/3 30/42/4
f 16/30/5 19/33/6 20/34/7 21/13/8
f 21/13/9 38/52/10 29/41/11 16/30/12
f 24/10/13 23/36/14 25/37/15 26/38/16
f 26/38/17 36/50/18 37/51/19 24/10/20
f 21/13/21 20/34/22 23/36/23 24/10/24
f 24/10/25 37/51/26 38/52/27 21/13/28
f 1/15/29 31/44/30 43/58/31 44/60/32
f 2/16/33 13/21/34 12/20/35 3/19/36
f 13/21/37 2/16/38 32/45/39 33/46/40
f 10/23/41 5/26/42 4/25/43 9/24/44
f 5/26/45 10/23/46 34/47/47 35/49/48
f 13/21/49 10/23/50 9/24/51 12/20/52
f 10/23/53 13/21/54 33/46/55 34/47/56
f 1/1/57 44/59/58 39/53/59 15/29/60
f 42/56/61 8/8/62 18/32/63 41/55/64
f 31/43/65 1/1/66 15/29/67 30/42/68
f 2/2/69 3/3/70 19/33/71 16/30/72
f 3/3/73 12/12/74 20/34/75 19/33/76
f 14/14/77 7/7/78 17/31/79 22/35/80
f 9/9/81 4/4/82 25/37/83 23/36/84
f 4/4/85 5/5/86 26/38/87 25/37/88
f 5/5/89 35/48/90 36/50/91 26/38/92
f 6/6/93 11/11/94 28/40/95 27/39/96
f 12/12/97 9/9/98 23/36/99 20/34/100
f 11/11/101 14/14/102 22/35/103 28/40/104
f 30/42/105 40/54/106 41/55/107 18/32/108
f 8/8/109 31/43/110 30/42/111 18/32/112
f 43/58/113 31/44/114 8/18/115 42/57/116
f 33/46/117 32/45/118 7/17/119 14/22/120
f 34/47/121 33/46/122 14/22/123 11/28/124
f 35/49/125 34/47/126 11/28/127 6/27/128
f 36/50/129 35/48/130 6/6/131 27/39/132
f 37/51/133 36/50/134 27/39/135 28/40/136
f 38/52/137 37/51/138 28/40/139 22/35/140
f 29/41/141 38/52/142 22/35/143 17/31/144
f 39/53/145 16/30/146 29/41/147 40/54/148
f 41/55/149 40/54/150 29/41/151 17/31/152
f 7/7/153 42/56/154 41/55/155 17/31/156
f 32/45/157 43/58/158 42/57/159 7/17/160
f 44/60/161 43/58/162 32/45/163 2/16/164
f 39/53/165 44/59/166 2/2/167 16/30/168
