# This file uses centimeters as units for non-parametric coordinates.

mtllib MDL_Sack.mtl
g default
v -8.122576 -0.007473 0.000000
v -7.447967 -0.007473 2.285109
v -5.557749 -0.007473 4.117624
v -1.515838 -0.007473 5.134593
v 1.515836 -0.007473 5.134594
v 4.247280 -0.007473 4.117625
v 5.236550 -0.007473 2.285110
v 5.911162 -0.007473 -0.000000
v -6.807697 13.116831 0.000000
v -6.133523 13.092557 2.285109
v -4.244530 13.024541 4.117624
v -1.514856 12.926255 5.134593
v 3.282828 12.817168 5.134594
v 3.791877 12.718883 3.941623
v 5.119771 12.650866 3.836766
v 6.807697 12.626591 0.000000
v -0.000000 -0.007473 -0.000000
v -1.598318 10.732817 5.134593
v -2.893091 10.592165 3.408410
v -4.739660 10.994592 1.891524
v -5.398693 11.138216 0.000000
v 6.809903 9.572549 0.000000
v 5.641297 9.584685 3.171507
v 3.834418 9.195947 3.381727
v 3.708059 9.954851 4.526744
v -1.515592 2.058740 5.134593
v -4.246593 2.083311 4.117624
v -6.382216 2.100315 2.285109
v -7.056718 2.106383 0.000000
v 6.811006 1.983824 -0.000000
v 6.136505 1.989892 2.285110
v 4.246593 2.006896 4.117625
v 1.515591 2.031467 5.134594
v -4.762439 8.982803 2.831265
v -5.740869 9.203669 2.077889
v -6.045733 9.273664 0.000000
v 6.810455 7.902684 0.000000
v 5.641795 7.911787 3.171507
v 3.739082 8.253817 3.772358
v 3.187931 7.974150 4.612723
v -2.091453 8.413284 5.134593
v -1.844885 9.495057 5.134593
v -4.514564 10.070580 4.117624
v -5.915524 10.443336 2.285109
v -6.964846 10.858712 0.000000
v 6.397220 8.272971 0.000000
v 4.789237 8.283591 3.171507
v 3.518692 8.756615 3.240001
v 3.415715 9.073425 4.526744
v -4.198080 11.655319 4.117624
v -6.041027 12.074363 2.285109
v -6.698766 12.223918 0.000000
v 6.808801 10.481722 -0.000000
v 5.640304 10.499928 3.171507
v 3.705939 10.550941 3.581994
v 3.415409 10.624654 4.526744
v -1.534943 11.049783 5.134593
v -4.873388 8.400581 4.117624
v -6.903408 8.826545 2.285109
v -7.563409 8.965721 0.000000
v 6.334143 7.334380 0.000000
v 5.002197 7.341966 3.171507
v 3.592226 7.363221 4.117625
v 2.963710 7.393934 5.134594
v -2.201094 7.837066 5.134593
v -2.029594 4.947903 5.763188
v -6.238253 5.241946 4.621718
v -8.321074 5.463429 2.564859
v -8.988324 5.536052 0.000000
v 7.463080 4.659101 0.000000
v 6.459857 4.665929 3.111896
v 4.809916 4.685058 4.696545
v 3.130157 4.712701 5.856496
v -5.122141 11.796455 0.000000
v -4.675816 11.719463 1.404877
v -3.321273 11.565071 2.657756
v -1.203616 11.558515 3.433674
v 2.477114 11.504418 3.911213
v 2.924816 11.464626 2.730814
v 4.254236 11.291142 2.620984
v 5.153759 11.079914 -0.104931
v -7.447967 -0.007473 -2.285109
v -5.557749 -0.007473 -4.117624
v -1.515838 -0.007473 -5.134593
v 1.515836 -0.007473 -5.134594
v 4.247280 -0.007473 -4.117625
v 5.236550 -0.007473 -2.285110
v -6.133523 13.092557 -2.285109
v -4.244530 13.024541 -4.117624
v -1.514856 12.926255 -5.134593
v 3.282828 12.817168 -5.134594
v 3.791877 12.718883 -3.941623
v 5.119771 12.650866 -3.836766
v -1.598318 10.732817 -5.134593
v -2.893091 10.592165 -3.408410
v -4.739660 10.994592 -1.891524
v 5.641297 9.584685 -3.171507
v 3.834418 9.195947 -3.381727
v 3.708059 9.954851 -4.526744
v -1.515592 2.058740 -5.134593
v -4.246593 2.083311 -4.117624
v -6.382216 2.100315 -2.285109
v 6.136505 1.989892 -2.285110
v 4.246593 2.006896 -4.117625
v 1.515591 2.031467 -5.134594
v -4.762439 8.982803 -2.831265
v -5.740869 9.203669 -2.077889
v 5.641795 7.911787 -3.171507
v 3.739082 8.253817 -3.772358
v 3.187931 7.974150 -4.612723
v -2.091453 8.413284 -5.134593
v -1.844885 9.495057 -5.134593
v -4.514564 10.070580 -4.117624
v -5.915524 10.443336 -2.285109
v 4.789237 8.283591 -3.171507
v 3.518692 8.756615 -3.240001
v 3.415715 9.073425 -4.526744
v -4.198080 11.655319 -4.117624
v -6.041027 12.074363 -2.285109
v 5.640304 10.499928 -3.171507
v 3.705939 10.550941 -3.581994
v 3.415409 10.624654 -4.526744
v -1.534943 11.049783 -5.134593
v -4.873388 8.400581 -4.117624
v -6.903408 8.826545 -2.285109
v 5.002197 7.341966 -3.171507
v 3.592226 7.363221 -4.117625
v 2.963710 7.393934 -5.134594
v -2.201094 7.837066 -5.134593
v -2.029594 4.947903 -5.763188
v -6.238253 5.241946 -4.621718
v -8.321074 5.463429 -2.564859
v 6.459857 4.665929 -3.111896
v 4.809916 4.685058 -4.696545
v 3.130157 4.712701 -5.856496
v -4.675816 11.719463 -1.404877
v -3.321273 11.565071 -2.657756
v -1.203616 11.558515 -3.433674
v 2.477114 11.504418 -3.911213
v 2.924816 11.464626 -2.730814
v 4.254236 11.291142 -2.620984
v 5.153759 11.079914 0.104931
vt 0.150796 0.112696
vt 0.693187 0.289343
vt 0.257871 0.178368
vt 0.136305 0.197778
vt 0.646218 0.243803
vt 0.379470 0.186722
vt 0.545779 0.218526
vt 0.480776 0.197503
vt 0.470443 0.218522
vt 0.583479 0.205201
vt 0.402566 0.243790
vt 0.683235 0.217134
vt 0.377981 0.289326
vt 0.782173 0.237573
vt 0.361214 0.346110
vt 0.888078 0.256814
vt 0.508105 0.346117
vt 0.371883 0.489236
vt 0.447507 0.482554
vt 0.450036 0.493197
vt 0.366281 0.537272
vt 0.277456 0.513956
vt 0.289437 0.559487
vt 0.204164 0.558496
vt 0.253214 0.583513
vt 0.731318 0.474425
vt 0.860268 0.489309
vt 0.846163 0.520125
vt 0.722975 0.500639
vt 0.674587 0.452469
vt 0.653288 0.490080
vt 0.630688 0.467588
vt 0.618746 0.487229
vt 0.454172 0.290918
vt 0.310180 0.283927
vt 0.215648 0.284565
vt 0.159977 0.300449
vt 0.896547 0.316813
vt 0.772763 0.314354
vt 0.691744 0.305760
vt 0.624724 0.298843
vt 0.247198 0.427314
vt 0.295572 0.420582
vt 0.333642 0.454396
vt 0.256764 0.472653
vt 0.181481 0.457876
vt 0.217315 0.512167
vt 0.745826 0.415580
vt 0.875201 0.432482
vt 0.870710 0.451872
vt 0.721380 0.431403
vt 0.671756 0.420333
vt 0.674404 0.438637
vt 0.628805 0.406576
vt 0.629474 0.440402
vt 0.431916 0.404184
vt 0.438163 0.440905
vt 0.380131 0.576559
vt 0.299481 0.590397
vt 0.225358 0.635980
vt 0.845290 0.576803
vt 0.673003 0.555425
vt 0.626758 0.557824
vt 0.593131 0.550426
vt 0.461174 0.555637
vt 0.229354 0.392174
vt 0.325568 0.385154
vt 0.173638 0.387685
vt 0.734505 0.394726
vt 0.878655 0.406290
vt 0.662989 0.392605
vt 0.618417 0.383385
vt 0.430711 0.384532
vt 0.321030 0.636302
vt 0.226492 0.671993
vt 0.408304 0.638365
vt 0.482774 0.627384
vt 0.565061 0.606221
vt 0.609632 0.606447
vt 0.654577 0.604999
vt 0.860147 0.624633
vt 0.747847 0.165390
vt 0.862666 0.199316
vt 0.677558 0.152732
vt 0.590255 0.140733
vt 0.491276 0.130335
vt 0.371797 0.116177
vt 0.252449 0.099329
vt 0.709948 0.346128
vt 0.150796 0.112696
vt 0.252449 0.099329
vt 0.257871 0.178368
vt 0.136305 0.197778
vt 0.371797 0.116177
vt 0.379470 0.186722
vt 0.491276 0.130335
vt 0.480776 0.197503
vt 0.590255 0.140733
vt 0.583479 0.205201
vt 0.677558 0.152732
vt 0.683235 0.217134
vt 0.747847 0.165390
vt 0.782173 0.237573
vt 0.862666 0.199316
vt 0.888078 0.256814
vt 0.693187 0.289343
vt 0.709948 0.346128
vt 0.508105 0.346117
vt 0.646218 0.243803
vt 0.545779 0.218526
vt 0.470443 0.218522
vt 0.402566 0.243790
vt 0.377981 0.289326
vt 0.361214 0.346110
vt 0.371883 0.489236
vt 0.447507 0.482554
vt 0.450036 0.493197
vt 0.366281 0.537272
vt 0.277456 0.513956
vt 0.289437 0.559487
vt 0.204164 0.558496
vt 0.253214 0.583513
vt 0.731318 0.474425
vt 0.860268 0.489309
vt 0.846163 0.520125
vt 0.722975 0.500639
vt 0.674587 0.452469
vt 0.653288 0.490080
vt 0.630688 0.467588
vt 0.618746 0.487229
vt 0.454172 0.290918
vt 0.310180 0.283927
vt 0.215648 0.284565
vt 0.159977 0.300449
vt 0.896547 0.316813
vt 0.772763 0.314354
vt 0.691744 0.305760
vt 0.624724 0.298843
vt 0.247198 0.427314
vt 0.295572 0.420582
vt 0.333642 0.454396
vt 0.256764 0.472653
vt 0.181481 0.457876
vt 0.217315 0.512167
vt 0.745826 0.415580
vt 0.875201 0.432482
vt 0.870710 0.451872
vt 0.721380 0.431403
vt 0.671756 0.420333
vt 0.674404 0.438637
vt 0.628805 0.406576
vt 0.629474 0.440402
vt 0.431916 0.404184
vt 0.438163 0.440905
vt 0.380131 0.576559
vt 0.299481 0.590397
vt 0.225358 0.635980
vt 0.845290 0.576803
vt 0.673003 0.555425
vt 0.626758 0.557824
vt 0.593131 0.550426
vt 0.461174 0.555637
vt 0.229354 0.392174
vt 0.325568 0.385154
vt 0.173638 0.387685
vt 0.734505 0.394726
vt 0.878655 0.406290
vt 0.662989 0.392605
vt 0.618417 0.383385
vt 0.430711 0.384532
vt 0.321030 0.636302
vt 0.226492 0.671993
vt 0.408304 0.638365
vt 0.482774 0.627384
vt 0.565061 0.606221
vt 0.609632 0.606447
vt 0.654577 0.604999
vt 0.860147 0.624633
vn -0.892662 0.450726 0.000000
vn -0.783505 0.413261 0.464042
vn -0.816636 -0.175759 0.549740
vn -0.983778 -0.179392 0.000000
vn -0.511484 0.260873 0.818736
vn -0.430384 -0.157233 0.888846
vn -0.157135 0.049571 0.986332
vn -0.150861 -0.150369 0.977052
vn 0.172677 0.000040 0.984979
vn 0.121977 -0.173959 0.977169
vn 0.560965 -0.080532 0.823913
vn 0.550234 -0.230976 0.802429
vn 0.560965 -0.080532 0.823913
vn 0.843631 -0.285848 0.454508
vn 0.850400 -0.276340 0.447724
vn 0.911502 -0.411296 0.000000
vn 0.952695 -0.303502 0.016104
vn 0.000000 -1.000000 0.000000
vn 0.000000 -1.000000 0.000000
vn 0.000000 -1.000000 0.000000
vn 0.000000 -1.000000 0.000000
vn 0.000000 -1.000000 0.000000
vn 0.000000 -1.000000 0.000000
vn 0.000000 -1.000000 0.000000
vn 0.000000 -1.000000 -0.000000
vn 0.000000 -1.000000 0.000000
vn -0.610333 0.099870 0.785824
vn -0.103892 -0.007030 0.994564
vn -0.087142 -0.165779 0.982305
vn -0.542917 -0.385385 0.746137
vn -0.797874 0.015338 0.602629
vn -0.755933 -0.499054 0.423686
vn -0.990344 0.133750 -0.036471
vn -0.849681 -0.527297 0.000000
vn 0.766734 -0.242307 0.594480
vn 0.968053 -0.235847 0.085147
vn 0.990318 0.026548 0.136255
vn 0.796274 -0.015620 0.604734
vn 0.428281 -0.173097 0.886912
vn 0.766734 -0.242307 0.594480
vn 0.796274 -0.015620 0.604734
vn 0.528582 -0.112998 0.841328
vn 0.353908 -0.010975 0.935216
vn 0.428281 -0.173097 0.886912
vn 0.528582 -0.112998 0.841328
vn 0.325190 -0.088476 0.941501
vn -0.103892 -0.007030 0.994564
vn 0.353908 -0.010975 0.935216
vn 0.325190 -0.088476 0.941501
vn -0.087142 -0.165779 0.982305
vn -0.139393 -0.000968 0.990237
vn -0.521949 -0.053171 0.851318
vn -0.816636 -0.175759 0.549740
vn -0.858477 -0.058261 0.509532
vn -0.983778 -0.179392 0.000000
vn -0.998052 -0.062390 0.000000
vn 0.991449 0.120763 0.049440
vn 0.856507 0.092962 0.507695
vn 0.610608 -0.043335 0.790746
vn 0.193137 -0.009884 0.981122
vn -0.774969 0.411515 0.479664
vn -0.584079 0.234904 0.776963
vn -0.549771 0.297394 0.780583
vn -0.747083 0.447929 0.491149
vn -0.929875 0.358694 -0.081678
vn -0.894325 0.442290 -0.067539
vn 0.855844 0.107177 0.506008
vn 0.994432 -0.022733 -0.102896
vn 0.995182 0.032579 -0.092472
vn 0.745070 0.109307 0.657969
vn 0.686329 0.231095 0.689600
vn 0.612418 0.017109 0.790349
vn 0.251954 0.136875 0.958011
vn 0.686329 0.231095 0.689600
vn 0.612418 0.017109 0.790349
vn 0.230726 -0.034400 0.972410
vn -0.141494 0.154050 0.977879
vn 0.251954 0.136875 0.958011
vn 0.230726 -0.034400 0.972410
vn -0.118145 0.036734 0.992317
vn -0.141494 0.154050 0.977879
vn -0.118145 0.036734 0.992317
vn -0.549771 0.297394 0.780583
vn -0.118145 0.036734 0.992317
vn -0.103892 -0.007030 0.994564
vn -0.610333 0.099870 0.785824
vn -0.747083 0.447929 0.491149
vn -0.797874 0.015338 0.602629
vn -0.894325 0.442290 -0.067539
vn -0.990344 0.133750 -0.036471
vn 0.745070 0.109307 0.657969
vn 0.995182 0.032579 0.092472
vn 0.612418 0.017109 0.790349
vn 0.745070 0.109307 0.657969
vn 0.230726 -0.034400 0.972410
vn 0.612418 0.017109 0.790349
vn 0.428281 -0.173097 0.886912
vn 0.353908 -0.010975 0.935216
vn -0.755933 -0.499054 0.423686
vn -0.542917 -0.385385 0.746137
vn -0.510183 -0.019167 0.859852
vn -0.842328 -0.069698 0.534439
vn -0.849681 -0.527297 -0.000000
vn -0.994492 -0.104817 -0.000000
vn 0.991118 0.035154 0.128258
vn 0.698071 -0.064740 0.713096
vn 0.698071 -0.064740 0.713096
vn 0.565257 -0.174084 0.806337
vn 0.565257 -0.174084 0.806337
vn 0.205006 -0.145841 0.967834
vn 0.205006 -0.145841 0.967834
vn -0.079416 -0.101969 0.991613
vn -0.705414 0.517621 0.484211
vn -0.405087 0.382019 0.830642
vn -0.584079 0.234904 0.776963
vn -0.774969 0.411515 0.479664
vn -0.838269 0.545237 -0.004658
vn -0.929875 0.358694 -0.081678
vn 0.776463 0.261576 0.573309
vn 0.975407 0.205781 0.078965
vn 0.994432 -0.022733 0.102896
vn 0.855844 0.107177 0.506008
vn 0.629706 0.300233 0.716470
vn 0.776463 0.261576 0.573309
vn 0.855844 0.107177 0.506008
vn 0.686329 0.231095 0.689600
vn 0.165247 0.290032 0.942643
vn -0.121513 0.293621 0.948167
vn 0.165247 0.290032 0.942643
vn -0.121513 0.293621 0.948167
vn -0.141494 0.154050 0.977879
vn -0.521949 -0.053171 0.851318
vn -0.405087 0.382019 0.830642
vn -0.858477 -0.058261 0.509532
vn -0.705414 0.517621 0.484211
vn -0.998052 -0.062390 -0.000000
vn -0.858477 -0.058261 0.509532
vn -0.705414 0.517621 0.484211
vn -0.838269 0.545237 0.004658
vn 0.856507 0.092962 0.507695
vn 0.991449 0.120763 0.049440
vn 0.975407 0.205781 0.078965
vn 0.610608 -0.043335 0.790746
vn 0.193137 -0.009884 0.981122
vn 0.623181 0.782077 -0.000000
vn 0.544344 0.775856 -0.318962
vn 0.541241 0.775581 -0.324856
vn 0.623181 0.782077 -0.000000
vn 0.350768 0.773183 -0.528347
vn 0.346308 0.773246 -0.531189
vn 0.128833 0.750638 -0.648031
vn 0.129806 0.750845 -0.647597
vn -0.091436 0.765727 -0.636633
vn -0.098086 0.766869 -0.634264
vn -0.091436 0.765727 -0.636633
vn -0.335715 0.750424 -0.569350
vn -0.305565 0.748413 -0.588649
vn -0.098086 0.766869 -0.634264
vn -0.335715 0.750424 -0.569350
vn -0.514227 0.741106 -0.431662
vn -0.530677 0.738082 -0.416674
vn -0.305565 0.748413 -0.588649
vn -0.514227 0.741106 -0.431662
vn -0.675624 0.730750 -0.097654
vn -0.675904 0.731610 -0.088885
vn -0.530677 0.738082 -0.416674
vn -0.816636 -0.175759 -0.549740
vn -0.783505 0.413261 -0.464042
vn -0.430384 -0.157233 -0.888846
vn -0.511484 0.260873 -0.818736
vn -0.150861 -0.150369 -0.977052
vn -0.157135 0.049571 -0.986332
vn 0.121977 -0.173959 -0.977169
vn 0.172677 0.000040 -0.984979
vn 0.550234 -0.230976 -0.802429
vn 0.560965 -0.080532 -0.823913
vn 0.560965 -0.080532 -0.823913
vn 0.850400 -0.276340 -0.447724
vn 0.843631 -0.285848 -0.454508
vn 0.952695 -0.303502 -0.016104
vn 0.911502 -0.411296 0.000000
vn 0.000000 -1.000000 0.000000
vn 0.000000 -1.000000 0.000000
vn 0.000000 -1.000000 0.000000
vn 0.000000 -1.000000 0.000000
vn 0.000000 -1.000000 0.000000
vn 0.000000 -1.000000 0.000000
vn -0.610333 0.099870 -0.785824
vn -0.542917 -0.385385 -0.746137
vn -0.087142 -0.165779 -0.982305
vn -0.103892 -0.007030 -0.994564
vn -0.797874 0.015338 -0.602629
vn -0.755933 -0.499054 -0.423687
vn 0.766734 -0.242307 -0.594480
vn 0.796274 -0.015620 -0.604734
vn 0.990318 0.026548 -0.136255
vn 0.968053 -0.235847 -0.085147
vn 0.428281 -0.173097 -0.886912
vn 0.528582 -0.112998 -0.841328
vn 0.796274 -0.015620 -0.604734
vn 0.766734 -0.242307 -0.594480
vn 0.353908 -0.010975 -0.935216
vn 0.325190 -0.088476 -0.941501
vn 0.528582 -0.112998 -0.841328
vn 0.428281 -0.173097 -0.886912
vn -0.103892 -0.007030 -0.994564
vn -0.087142 -0.165779 -0.982305
vn 0.325190 -0.088476 -0.941501
vn 0.353908 -0.010975 -0.935216
vn -0.521949 -0.053171 -0.851318
vn -0.139393 -0.000968 -0.990237
vn -0.816636 -0.175759 -0.549740
vn -0.858477 -0.058261 -0.509532
vn 0.856507 0.092962 -0.507695
vn 0.991449 0.120763 -0.049440
vn 0.610608 -0.043335 -0.790746
vn 0.193137 -0.009884 -0.981122
vn -0.774969 0.411515 -0.479664
vn -0.747083 0.447929 -0.491149
vn -0.549771 0.297394 -0.780583
vn -0.584079 0.234904 -0.776963
vn 0.855844 0.107177 -0.506008
vn 0.745070 0.109307 -0.657969
vn 0.686329 0.231095 -0.689600
vn 0.612418 0.017109 -0.790349
vn 0.251954 0.136875 -0.958011
vn 0.230727 -0.034400 -0.972410
vn 0.612418 0.017109 -0.790349
vn 0.686329 0.231095 -0.689600
vn -0.141494 0.154050 -0.977879
vn -0.118145 0.036734 -0.992317
vn 0.230727 -0.034400 -0.972410
vn 0.251954 0.136875 -0.958011
vn -0.118145 0.036734 -0.992317
vn -0.141494 0.154050 -0.977879
vn -0.549771 0.297394 -0.780583
vn -0.610333 0.099870 -0.785824
vn -0.103892 -0.007030 -0.994564
vn -0.118145 0.036734 -0.992317
vn -0.747083 0.447929 -0.491149
vn -0.797874 0.015338 -0.602629
vn 0.745070 0.109307 -0.657969
vn 0.995182 0.032579 -0.092472
vn 0.612418 0.017109 -0.790349
vn 0.745070 0.109307 -0.657969
vn 0.230727 -0.034400 -0.972410
vn 0.353908 -0.010975 -0.935216
vn 0.428281 -0.173097 -0.886912
vn 0.612418 0.017109 -0.790349
vn -0.755933 -0.499054 -0.423687
vn -0.842328 -0.069698 -0.534439
vn -0.510183 -0.019167 -0.859852
vn -0.542917 -0.385385 -0.746137
vn -0.849681 -0.527297 0.000000
vn -0.994492 -0.104817 0.000000
vn 0.698071 -0.064740 -0.713096
vn 0.991118 0.035154 -0.128258
vn 0.565257 -0.174084 -0.806337
vn 0.698071 -0.064740 -0.713096
vn 0.205006 -0.145841 -0.967834
vn 0.565257 -0.174084 -0.806337
vn -0.079416 -0.101969 -0.991613
vn 0.205006 -0.145841 -0.967834
vn -0.705414 0.517621 -0.484211
vn -0.774969 0.411515 -0.479664
vn -0.584079 0.234904 -0.776963
vn -0.405087 0.382019 -0.830642
vn 0.776463 0.261576 -0.573309
vn 0.855844 0.107177 -0.506008
vn 0.994432 -0.022733 -0.102896
vn 0.975407 0.205781 -0.078965
vn 0.629706 0.300233 -0.716470
vn 0.686329 0.231095 -0.689600
vn 0.855844 0.107177 -0.506008
vn 0.776463 0.261576 -0.573309
vn 0.165247 0.290032 -0.942643
vn -0.121513 0.293621 -0.948167
vn 0.165247 0.290032 -0.942643
vn -0.141494 0.154050 -0.977879
vn -0.121513 0.293621 -0.948167
vn -0.521949 -0.053171 -0.851318
vn -0.405087 0.382019 -0.830642
vn -0.858477 -0.058261 -0.509532
vn -0.705414 0.517621 -0.484211
vn -0.998052 -0.062390 0.000000
vn -0.838269 0.545237 -0.004658
vn -0.705414 0.517621 -0.484211
vn -0.858477 -0.058261 -0.509532
vn 0.856507 0.092962 -0.507695
vn 0.975407 0.205781 -0.078965
vn 0.991449 0.120763 -0.049440
vn 0.610608 -0.043335 -0.790746
vn 0.193137 -0.009884 -0.981122
vn 0.541241 0.775581 0.324856
vn 0.544344 0.775856 0.318962
vn 0.346308 0.773246 0.531189
vn 0.350768 0.773183 0.528347
vn 0.129806 0.750845 0.647597
vn 0.128833 0.750638 0.648031
vn -0.098086 0.766869 0.634264
vn -0.091436 0.765727 0.636633
vn -0.091436 0.765727 0.636633
vn -0.098086 0.766869 0.634264
vn -0.305565 0.748413 0.588649
vn -0.335715 0.750424 0.569350
vn -0.335715 0.750424 0.569350
vn -0.305565 0.748413 0.588649
vn -0.530677 0.738082 0.416674
vn -0.514227 0.741106 0.431662
vn -0.514227 0.741106 0.431662
vn -0.530677 0.738082 0.416674
vn -0.675904 0.731610 0.088885
vn -0.675624 0.730750 0.097654
vn 0.544344 0.775856 0.318962
vn 0.346308 0.773246 0.531189
vn 0.350768 0.773183 0.528347
vn 0.129806 0.750845 0.647597
vn 0.128833 0.750638 0.648031
vn -0.098086 0.766869 0.634264
vn -0.091436 0.765727 0.636633
vn -0.091436 0.765727 0.636633
vn -0.098086 0.766869 0.634264
vn -0.305565 0.748413 0.588649
vn -0.335715 0.750424 0.569350
vn -0.335715 0.750424 0.569350
vn -0.305565 0.748413 0.588649
vn -0.530677 0.738082 0.416674
vn -0.514227 0.741106 0.431662
vn -0.514227 0.741106 0.431662
vn -0.530677 0.738082 0.416674
vn -0.675904 0.731610 0.088885
vn -0.675624 0.730750 0.097654
s 1
g pCylinder1
usemtl pCylinder1SG
f 1/1/1 2/88/2 28/3/3 29/4/4
f 2/88/2 3/87/5 27/6/6 28/3/3
f 3/87/5 4/86/7 26/8/8 27/6/6
f 4/86/7 5/85/9 33/10/10 26/8/8
f 5/85/9 6/84/11 32/12/12 33/10/10
f 6/84/13 7/82/14 31/14/15 32/12/12
f 7/82/14 8/83/16 30/16/17 31/14/15
s 3
f 2/2/18 1/89/19 17/17/20
f 3/5/21 2/2/18 17/17/20
f 4/7/22 3/5/21 17/17/20
f 5/9/23 4/7/22 17/17/20
f 6/11/24 5/9/23 17/17/20
f 7/13/25 6/11/24 17/17/20
f 8/15/26 7/13/25 17/17/20
s 4
f 19/18/27 18/19/28 57/20/29 50/21/30
f 20/22/31 19/18/27 50/21/30 51/23/32
f 21/24/33 20/22/31 51/23/32 52/25/34
s 5
f 23/26/35 22/27/36 53/28/37 54/29/38
s 6
f 24/30/39 23/26/40 54/29/41 55/31/42
s 7
f 25/32/43 24/30/44 55/31/45 56/33/46
s 1
f 18/19/47 25/32/48 56/33/49 57/20/50
f 27/6/6 26/8/8 66/34/51 67/35/52
f 28/3/53 27/6/6 67/35/52 68/36/54
f 29/4/55 28/3/53 68/36/54 69/37/56
f 31/14/15 30/16/17 70/38/57 71/39/58
f 32/12/12 31/14/15 71/39/58 72/40/59
f 33/10/10 32/12/12 72/40/59 73/41/60
f 26/8/8 33/10/10 73/41/60 66/34/51
s 9
f 35/42/61 34/43/62 43/44/63 44/45/64
f 36/46/65 35/42/61 44/45/64 45/47/66
s 10
f 38/48/67 37/49/68 46/50/69 47/51/70
f 39/52/71 38/48/67 47/51/70 48/53/72
s 11
f 40/54/73 39/52/74 48/53/75 49/55/76
s 1
f 41/56/77 40/54/78 49/55/79 42/57/80
s 9
f 34/43/62 41/56/81 42/57/82 43/44/63
s 13
f 43/44/83 42/57/84 18/19/85 19/18/86
f 44/45/87 43/44/83 19/18/86 20/22/88
f 45/47/89 44/45/87 20/22/88 21/24/90
s 5
f 47/51/91 46/50/92 22/27/36 23/26/35
s 6
f 48/53/93 47/51/94 23/26/40 24/30/39
s off
f 49/55/95 48/53/96 24/30/97 25/32/98
s 1
f 42/57/80 49/55/79 25/32/48 18/19/47
f 51/23/99 50/21/100 11/58/101 10/59/102
f 52/25/103 51/23/99 10/59/102 9/60/104
s 5
f 54/29/38 53/28/37 16/61/105 15/62/106
s 6
f 55/31/42 54/29/41 15/62/107 14/63/108
s 7
f 56/33/46 55/31/45 14/63/109 13/64/110
s 1
f 57/20/50 56/33/49 13/64/111 12/65/112
f 50/21/100 57/20/50 12/65/112 11/58/101
s 15
f 59/66/113 58/67/114 34/43/115 35/42/116
f 60/68/117 59/66/113 35/42/116 36/46/118
s off
f 62/69/119 61/70/120 37/49/121 38/48/122
s 11
f 63/71/123 62/69/124 38/48/125 39/52/126
f 64/72/127 63/71/123 39/52/74 40/54/73
s 1
f 65/73/128 64/72/129 40/54/78 41/56/77
s 15
f 58/67/114 65/73/130 41/56/131 34/43/115
s 1
f 67/35/132 66/34/51 65/73/128 58/67/133
f 68/36/134 67/35/132 58/67/133 59/66/135
s off
f 69/37/136 68/36/137 59/66/138 60/68/139
s 11
f 71/39/140 70/38/141 61/70/142 62/69/124
f 72/40/143 71/39/140 62/69/124 63/71/123
f 73/41/144 72/40/143 63/71/123 64/72/127
s 1
f 66/34/51 73/41/60 64/72/129 65/73/128
s 17
f 9/60/145 10/59/146 75/74/147 74/75/148
f 10/59/146 11/58/149 76/76/150 75/74/147
f 11/58/149 12/65/151 77/77/152 76/76/150
f 12/65/151 13/64/153 78/78/154 77/77/152
s off
f 13/64/155 14/63/156 79/79/157 78/78/158
f 14/63/159 15/62/160 80/80/161 79/79/162
f 15/62/163 16/61/164 81/81/165 80/80/166
s 1
f 1/90/1 29/93/4 102/92/167 82/91/168
f 82/91/168 102/92/167 101/95/169 83/94/170
f 83/94/170 101/95/169 100/97/171 84/96/172
f 84/96/172 100/97/171 105/99/173 85/98/174
f 85/98/174 105/99/173 104/101/175 86/100/176
f 86/100/177 104/101/175 103/103/178 87/102/179
f 87/102/179 103/103/178 30/105/180 8/104/181
s 3
f 82/106/182 17/108/20 1/107/19
f 83/109/183 17/108/20 82/106/182
f 84/110/184 17/108/20 83/109/183
f 85/111/185 17/108/20 84/110/184
f 86/112/186 17/108/20 85/111/185
f 87/113/187 17/108/20 86/112/186
f 8/114/26 17/108/20 87/113/187
s 4
f 95/115/188 118/118/189 123/117/190 94/116/191
f 96/119/192 119/120/193 118/118/189 95/115/188
f 21/121/33 52/122/34 119/120/193 96/119/192
s 20
f 97/123/194 120/126/195 53/125/196 22/124/197
s 21
f 98/127/198 121/128/199 120/126/200 97/123/201
s 22
f 99/129/202 122/130/203 121/128/204 98/127/205
s 1
f 94/116/206 123/117/207 122/130/208 99/129/209
f 101/95/169 131/132/210 130/131/211 100/97/171
f 102/92/212 132/133/213 131/132/210 101/95/169
f 29/93/55 69/134/56 132/133/213 102/92/212
f 103/103/178 133/136/214 70/135/215 30/105/180
f 104/101/175 134/137/216 133/136/214 103/103/178
f 105/99/173 135/138/217 134/137/216 104/101/175
f 100/97/171 130/131/211 135/138/217 105/99/173
s 9
f 107/139/218 114/142/219 113/141/220 106/140/221
f 36/143/65 45/144/66 114/142/219 107/139/218
s 10
f 108/145/222 115/148/223 46/147/69 37/146/68
f 109/149/224 116/150/225 115/148/223 108/145/222
s 24
f 110/151/226 117/152/227 116/150/228 109/149/229
s 1
f 111/153/230 112/154/231 117/152/232 110/151/233
s 9
f 106/140/221 113/141/220 112/154/234 111/153/235
s 13
f 113/141/236 95/115/237 94/116/238 112/154/239
f 114/142/240 96/119/241 95/115/237 113/141/236
f 45/144/89 21/121/90 96/119/241 114/142/240
s 20
f 115/148/242 97/123/194 22/124/197 46/147/243
s 21
f 116/150/244 98/127/198 97/123/201 115/148/245
s off
f 117/152/246 99/129/247 98/127/248 116/150/249
s 1
f 112/154/231 94/116/206 99/129/209 117/152/232
f 119/120/250 88/156/251 89/155/252 118/118/253
f 52/122/254 9/157/255 88/156/251 119/120/250
s 20
f 120/126/195 93/159/256 16/158/257 53/125/196
s 21
f 121/128/199 92/160/258 93/159/259 120/126/200
s 22
f 122/130/203 91/161/260 92/160/261 121/128/204
s 1
f 123/117/207 90/162/262 91/161/263 122/130/208
f 118/118/253 89/155/252 90/162/262 123/117/207
s 15
f 125/163/264 107/139/265 106/140/266 124/164/267
f 60/165/117 36/143/118 107/139/265 125/163/264
s off
f 126/166/268 108/145/269 37/146/270 61/167/271
s 24
f 127/168/272 109/149/273 108/145/274 126/166/275
f 128/169/276 110/151/226 109/149/229 127/168/272
s 1
f 129/170/277 111/153/230 110/151/233 128/169/278
s 15
f 124/164/267 106/140/266 111/153/279 129/170/280
s 1
f 131/132/281 124/164/282 129/170/277 130/131/211
f 132/133/283 125/163/284 124/164/282 131/132/281
s off
f 69/134/285 60/165/286 125/163/287 132/133/288
s 24
f 133/136/289 126/166/275 61/167/290 70/135/291
f 134/137/292 127/168/272 126/166/275 133/136/289
f 135/138/293 128/169/276 127/168/272 134/137/292
s 1
f 130/131/211 129/170/277 128/169/278 135/138/217
s 17
f 9/157/145 74/172/148 136/171/294 88/156/295
f 88/156/295 136/171/294 137/173/296 89/155/297
f 89/155/297 137/173/296 138/174/298 90/162/299
f 90/162/299 138/174/298 139/175/300 91/161/301
s off
f 91/161/302 139/175/303 140/176/304 92/160/305
f 92/160/306 140/176/307 141/177/308 93/159/309
f 93/159/310 141/177/311 142/178/312 16/158/313
