# This file uses centimeters as units for non-parametric coordinates.

mtllib MDL_Moon.mtl
g default
v -1.129222 9.978585 0.204735
v 1.154100 9.080988 0.204735
v -1.477467 15.990051 0.204735
v 0.820512 16.900604 0.204735
v -1.477467 15.990051 -0.204735
v 0.820512 16.900604 -0.204735
v -1.129222 9.978585 -0.204735
v 1.154100 9.080988 -0.204735
v -3.024875 18.787811 0.204735
v -2.656698 19.501936 0.204735
v -2.656698 19.501936 -0.204735
v -3.024875 18.787811 -0.204735
v -3.105060 6.583370 -0.204735
v -2.848711 6.027380 -0.204735
v -2.848711 6.027380 0.204735
v -3.105060 6.583370 0.204735
v -0.842260 12.949859 0.204735
v -0.842260 12.949859 -0.204735
v 2.801378 12.949859 -0.204735
v 2.801378 12.949859 0.204735
v -4.000000 19.553961 0.204735
v -4.000000 19.854130 0.204735
v -4.000000 19.854130 -0.204735
v -4.000000 19.553961 -0.204735
v -3.998098 5.995362 -0.204735
v -3.998095 5.726445 -0.204735
v -3.998095 5.726445 0.204735
v -3.998098 5.995362 0.204735
v -1.740364 8.315204 0.204735
v -0.557485 7.554184 0.204735
v -0.557485 7.554184 -0.204735
v -1.740364 8.315204 -0.204735
v -2.096696 17.557266 0.204735
v -2.096696 17.557266 -0.204735
v -0.845637 18.309952 -0.204735
v -0.845637 18.309952 0.204735
vt 0.691514 0.417510
vt 0.818089 0.439862
vt 0.805742 0.643261
vt 0.623999 0.574089
vt 0.428747 0.938661
vt 0.430827 0.950365
vt 0.422622 0.964366
vt 0.398805 0.854756
vt 0.603962 0.565595
vt 0.182807 0.407296
vt 0.839965 0.439980
vt 0.429753 0.331744
vt 0.738184 0.137681
vt 0.647478 0.174037
vt 0.755174 0.151032
vt 0.745640 0.152481
vt 0.553310 0.736557
vt 0.663821 0.803180
vt 0.576445 0.865738
vt 0.511482 0.822010
vt 0.679209 0.818507
vt 0.265906 0.736768
vt 0.338746 0.633934
vt 0.492263 0.811476
vt 0.817930 0.326652
vt 0.489763 0.260855
vt 0.796276 0.330287
vt 0.721765 0.320831
vt 0.463371 0.891484
vt 0.487396 0.927580
vt 0.496785 0.948040
vt 0.364586 0.799498
vt 0.718354 0.196150
vt 0.585483 0.168173
vt 0.772040 0.194362
vt 0.740369 0.201696
vt 0.333614 0.828028
vt 0.589126 0.883735
vt 0.792604 0.188250
vt 0.445225 0.202112
vt 0.209242 0.637416
vt 0.825430 0.651752
vt 0.333501 0.246479
vt 0.444700 0.880654
vt 0.341033 0.722224
vt 0.588100 0.200155
vt 0.700471 0.315406
vt 0.533376 0.727699
vt 0.362172 0.472847
vt 0.671133 0.409766
vt 0.642640 0.187275
vt 0.760681 0.131558
vt 0.393405 0.869533
vt 0.408653 0.941904
vn 0.000000 0.000000 1.000000
vn 0.000000 0.000000 1.000000
vn 0.000000 0.000000 1.000000
vn 0.000000 0.000000 1.000000
vn -1.000000 -0.000002 0.000000
vn -1.000000 -0.000002 0.000000
vn -1.000000 -0.000002 0.000000
vn -1.000000 -0.000002 0.000000
vn 0.000000 0.000000 -1.000000
vn 0.000000 0.000000 -1.000000
vn 0.000000 0.000000 -1.000000
vn 0.000000 0.000000 -1.000000
vn -1.000000 -0.000013 0.000000
vn -1.000000 -0.000013 0.000000
vn -1.000000 -0.000013 0.000000
vn -1.000000 -0.000013 0.000000
vn 0.848947 -0.528478 0.000000
vn 0.848947 -0.528478 0.000000
vn 0.999091 0.042622 0.000000
vn 0.999091 0.042622 0.000000
vn -0.981737 0.190241 0.000000
vn -0.981737 0.190241 0.000000
vn -0.998326 -0.057833 0.000000
vn -0.998326 -0.057833 0.000000
vn 0.000000 0.000000 1.000000
vn 0.000000 0.000000 1.000000
vn 0.000000 0.000000 1.000000
vn 0.000000 0.000000 1.000000
vn 0.826772 0.562537 0.000000
vn 0.826772 0.562537 0.000000
vn 0.599030 0.800726 0.000000
vn 0.599030 0.800726 0.000000
vn 0.000000 0.000000 -1.000000
vn 0.000000 0.000000 -1.000000
vn 0.000000 0.000000 -1.000000
vn 0.000000 0.000000 -1.000000
vn -0.964877 -0.262702 0.000000
vn -0.964877 -0.262702 0.000000
vn -0.875072 -0.483992 0.000000
vn -0.875072 -0.483992 0.000000
vn 0.000000 0.000000 -1.000000
vn 0.000000 0.000000 -1.000000
vn -0.000000 0.000000 -1.000000
vn -0.000000 0.000000 -1.000000
vn 0.848947 -0.528478 0.000000
vn 0.848947 -0.528478 0.000000
vn 0.606527 -0.795063 0.000000
vn 0.606527 -0.795063 0.000000
vn 0.000000 0.000000 1.000000
vn 0.000000 0.000000 1.000000
vn 0.000000 0.000000 1.000000
vn 0.000000 0.000000 1.000000
vn -0.981737 0.190241 0.000000
vn -0.981737 0.190241 0.000000
vn -0.864300 0.502977 0.000000
vn -0.864300 0.502977 0.000000
vn -0.998326 -0.057833 0.000000
vn -0.998326 -0.057833 0.000000
vn -0.964877 -0.262702 0.000000
vn -0.964877 -0.262702 0.000000
vn 0.000000 0.000000 -1.000000
vn 0.000000 0.000000 -1.000000
vn 0.000000 0.000000 -1.000000
vn 0.000000 0.000000 -1.000000
vn 0.999091 0.042622 0.000000
vn 0.999091 0.042622 0.000000
vn 0.826772 0.562537 0.000000
vn 0.826772 0.562537 0.000000
vn 0.000000 0.000000 1.000000
vn 0.000000 0.000000 1.000000
vn 0.000000 0.000000 1.000000
vn 0.000000 0.000000 1.000000
vn 0.000000 0.000000 1.000000
vn 0.000000 0.000000 1.000000
vn 0.000000 0.000000 1.000000
vn 0.000000 0.000000 1.000000
vn 0.253613 0.967306 0.000000
vn 0.253613 0.967306 0.000000
vn 0.253613 0.967306 0.000000
vn 0.253613 0.967306 0.000000
vn 0.000000 0.000000 -1.000000
vn 0.000000 0.000000 -1.000000
vn 0.000000 0.000000 -1.000000
vn 0.000000 0.000000 -1.000000
vn -0.617812 -0.786326 0.000000
vn -0.617812 -0.786326 0.000000
vn -0.617812 -0.786326 0.000000
vn -0.617812 -0.786326 0.000000
vn 0.000000 0.000000 -1.000000
vn 0.000000 0.000000 -1.000000
vn 0.000000 0.000000 -1.000000
vn 0.000000 0.000000 -1.000000
vn 0.253285 -0.967392 0.000000
vn 0.253285 -0.967392 0.000000
vn 0.253285 -0.967392 0.000000
vn 0.253285 -0.967392 0.000000
vn 0.000000 0.000000 1.000000
vn 0.000000 0.000000 1.000000
vn 0.000000 0.000000 1.000000
vn 0.000000 0.000000 1.000000
vn -0.549931 0.835210 0.000000
vn -0.549931 0.835210 0.000000
vn -0.549931 0.835210 0.000000
vn -0.549931 0.835210 0.000000
vn 0.000000 0.000000 1.000000
vn 0.000000 0.000000 1.000000
vn 0.000000 0.000000 1.000000
vn 0.000000 0.000000 1.000000
vn 0.606527 -0.795063 0.000000
vn 0.606527 -0.795063 0.000000
vn 0.554529 -0.832164 0.000000
vn 0.554529 -0.832164 0.000000
vn -0.000000 0.000000 -1.000000
vn -0.000000 0.000000 -1.000000
vn 0.000000 0.000000 -1.000000
vn 0.000000 0.000000 -1.000000
vn -0.864300 0.502977 0.000000
vn -0.864300 0.502977 0.000000
vn -0.785443 0.618934 0.000000
vn -0.785443 0.618934 0.000000
vn -0.875072 -0.483992 0.000000
vn -0.875072 -0.483992 0.000000
vn -0.798356 -0.602186 0.000000
vn -0.798356 -0.602186 0.000000
vn 0.000000 0.000000 -1.000000
vn 0.000000 0.000000 -1.000000
vn 0.000000 0.000000 -1.000000
vn 0.000000 0.000000 -1.000000
vn 0.599030 0.800726 0.000000
vn 0.599030 0.800726 0.000000
vn 0.549776 0.835312 0.000000
vn 0.549776 0.835312 0.000000
vn 0.000000 0.000000 1.000000
vn 0.000000 0.000000 1.000000
vn 0.000000 0.000000 1.000000
vn 0.000000 0.000000 1.000000
s off
g pCube1
usemtl pCube1SG
f 1/1/1 2/2/2 20/3/3 17/4/4
f 21/5/5 22/6/6 23/7/7 24/54/8
f 18/49/9 19/10/10 8/43/11 7/12/12
f 25/13/13 26/52/14 27/15/15 28/16/16
f 2/2/17 8/11/18 19/42/19 20/3/20
f 7/50/21 1/1/22 17/4/23 18/9/24
f 3/17/25 4/18/26 36/19/27 33/20/28
f 4/18/29 6/21/30 35/38/31 36/19/32
f 6/41/33 5/23/34 34/45/35 35/22/36
f 5/48/37 3/17/38 33/20/39 34/24/40
f 7/12/41 8/43/42 31/40/43 32/26/44
f 8/11/45 2/2/46 30/27/47 31/25/48
f 2/2/49 1/1/50 29/28/51 30/27/52
f 1/1/53 7/50/54 32/47/55 29/28/56
f 18/9/57 17/4/58 3/17/59 5/48/60
f 5/23/61 6/41/62 19/10/63 18/49/64
f 20/3/65 19/42/66 6/21/67 4/18/68
f 17/4/69 20/3/70 4/18/71 3/17/72
f 9/29/73 10/30/74 22/6/75 21/5/76
f 10/30/77 11/31/78 23/7/79 22/6/80
f 11/37/81 12/32/82 24/8/83 23/53/84
f 12/44/85 9/29/86 21/5/87 24/54/88
f 13/46/89 14/34/90 26/14/91 25/51/92
f 14/39/93 15/35/94 27/15/95 26/52/96
f 15/35/97 16/36/98 28/16/99 27/15/100
f 16/36/101 13/33/102 25/13/103 28/16/104
f 30/27/105 29/28/106 16/36/107 15/35/108
f 31/25/109 30/27/110 15/35/111 14/39/112
f 32/26/113 31/40/114 14/34/115 13/46/116
f 29/28/117 32/47/118 13/33/119 16/36/120
f 34/24/121 33/20/122 9/29/123 12/44/124
f 35/22/125 34/45/126 12/32/127 11/37/128
f 36/19/129 35/38/130 11/31/131 10/30/132
f 33/20/133 36/19/134 10/30/135 9/29/136
